<svg width="25" height="25" viewBox="0 0 25 25" fill="none" xmlns="http://www.w3.org/2000/svg">
<path d="M13.5 10.25H7.5C7.09 10.25 6.75 9.91 6.75 9.5C6.75 9.09 7.09 8.75 7.5 8.75H13.5C13.91 8.75 14.25 9.09 14.25 9.5C14.25 9.91 13.91 10.25 13.5 10.25Z" fill="#717171"/>
<path d="M19.5399 15.2999C18.0299 15.2999 16.7499 14.1799 16.6299 12.7399C16.5499 11.9099 16.8499 11.0999 17.4499 10.5099C17.9499 9.98995 18.6599 9.69995 19.4099 9.69995H21.4999C22.4899 9.72995 23.2499 10.5099 23.2499 11.4699V13.53C23.2499 14.49 22.4899 15.2699 21.5299 15.2999H19.5399ZM21.4699 11.2H19.4199C19.0699 11.2 18.7499 11.3299 18.5199 11.5699C18.2299 11.8499 18.0899 12.2299 18.1299 12.6099C18.1799 13.2699 18.8199 13.7999 19.5399 13.7999H21.4999C21.6299 13.7999 21.7499 13.68 21.7499 13.53V11.4699C21.7499 11.3199 21.6299 11.21 21.4699 11.2Z" fill="#717171"/>
<path d="M16.5 21.75H7.5C4.06 21.75 1.75 19.44 1.75 16V9C1.75 5.92 3.64998 3.69001 6.59998 3.32001C6.86998 3.28001 7.18 3.25 7.5 3.25H16.5C16.74 3.25 17.05 3.26 17.37 3.31C20.32 3.65 22.25 5.89 22.25 9V10.45C22.25 10.86 21.91 11.2 21.5 11.2H19.42C19.07 11.2 18.75 11.33 18.52 11.57L18.51 11.58C18.23 11.85 18.1 12.22 18.13 12.6C18.18 13.26 18.82 13.79 19.54 13.79H21.5C21.91 13.79 22.25 14.13 22.25 14.54V15.99C22.25 19.44 19.94 21.75 16.5 21.75ZM7.5 4.75C7.26 4.75 7.02999 4.76999 6.79999 4.79999C4.59999 5.07999 3.25 6.68 3.25 9V16C3.25 18.58 4.92 20.25 7.5 20.25H16.5C19.08 20.25 20.75 18.58 20.75 16V15.3H19.54C18.03 15.3 16.75 14.18 16.63 12.74C16.55 11.92 16.85 11.1 17.45 10.52C17.97 9.99002 18.67 9.70001 19.42 9.70001H20.75V9C20.75 6.66 19.38 5.04998 17.16 4.78998C16.92 4.74998 16.71 4.75 16.5 4.75H7.5Z" fill="#717171"/>
</svg>
